# xmcd
#
# Track frame offsets: 
#        150
#        9631
#        31436
#        51800
#        63102
#        72239
#        88936
#        96587
#        101856
#        109699
#        122305
#        138529
#        150207
#        164633
#
# Disc length: 2376 seconds
#
# Revision: 0
# Processed by: cddbd v1.5.2PL0 Copyright (c) Steve Scherf et al.
# Submitted via: ExactAudioCopyFreeDBPlugin 1.0
#
DISCID=bb09460e
DTITLE=Brown Bird - The Brown Bird Christmas Album
DYEAR=2014
DGENRE=Christmas - Bluegrass
TTITLE0=Christmas in the Morning
TTITLE1=The Old Church Bell
TTITLE2=Silent Night
TTITLE3=Blue Christmas
TTITLE4=Jack Frost and the Hooded Crow 
TTITLE5=Saraphim and Stone
TTITLE6=White Christmas
TTITLE7=Hey Ho Nobody Home
TTITLE8=Coventry Carol
TTITLE9=Merry Christmas, Baby
TTITLE10=New Year's Eve
TTITLE11=Jingle Bells
TTITLE12=Just Because
TTITLE13=Zat You Santa Claus?
EXTD=
EXTT0=
EXTT1=
EXTT2=
EXTT3=
EXTT4=
EXTT5=
EXTT6=
EXTT7=
EXTT8=
EXTT9=
EXTT10=
EXTT11=
EXTT12=
EXTT13=
PLAYORDER=
